<svg width="24" height="24" viewBox="0 0 24 24" fill="none" xmlns="http://www.w3.org/2000/svg">
<path d="M21.2966 6.7157H2.70298C2.0754 6.7157 1.56665 7.22445 1.56665 7.85203V18.481C1.56665 19.1086 2.0754 19.6174 2.70298 19.6174H21.2966C21.9242 19.6174 22.433 19.1086 22.433 18.481V7.85203C22.433 7.22445 21.9242 6.7157 21.2966 6.7157Z" fill="black" fill-opacity="0.9"/>
<path d="M12.9473 3.53296H10.9843C10.6977 3.53296 10.4653 3.76532 10.4653 4.05196V8.23829C10.4653 8.52493 10.6977 8.75729 10.9843 8.75729H12.9473C13.234 8.75729 13.4663 8.52493 13.4663 8.23829V4.05196C13.4663 3.76532 13.234 3.53296 12.9473 3.53296Z" fill="black" fill-opacity="0.9"/>
<path d="M5.801 10.2167H18.3687C18.6203 10.2166 18.8695 10.2662 19.1019 10.3624C19.3344 10.4587 19.5457 10.5998 19.7236 10.7778C19.9015 10.9557 20.0426 11.1669 20.1389 11.3994C20.2352 11.6319 20.2847 11.881 20.2847 12.1327V16.9007C20.2847 17.0285 20.2596 17.155 20.2107 17.2731C20.1618 17.3911 20.0901 17.4984 19.9998 17.5888C19.9094 17.6791 19.8021 17.7508 19.6841 17.7997C19.566 17.8486 19.4395 17.8737 19.3117 17.8737H4.261C4.13324 17.8737 4.00673 17.8485 3.8887 17.7996C3.77067 17.7507 3.66342 17.679 3.5731 17.5887C3.48278 17.4983 3.41114 17.391 3.36227 17.273C3.31341 17.155 3.28829 17.0284 3.28833 16.9007V12.73C3.28842 12.0636 3.55317 11.4246 4.02437 10.9534C4.49557 10.4822 5.13462 10.2174 5.801 10.2173V10.2167Z" fill="black" fill-opacity="0.9"/>
<path d="M18.852 10.4557H4.79731C4.26012 10.4557 3.82465 10.8912 3.82465 11.4284V16.06C3.82465 16.5972 4.26012 17.0327 4.79731 17.0327H18.852C19.3892 17.0327 19.8246 16.5972 19.8246 16.06V11.4284C19.8246 10.8912 19.3892 10.4557 18.852 10.4557Z" fill="white"/>
<path d="M13.5007 6.88232H21.2967C21.5981 6.88232 21.8872 7.00208 22.1004 7.21525C22.3136 7.42841 22.4333 7.71753 22.4333 8.01899V18.6477C22.4333 18.9491 22.3136 19.2382 22.1004 19.4514C21.8872 19.6646 21.5981 19.7843 21.2967 19.7843H2.70332C2.40185 19.7843 2.11274 19.6646 1.89957 19.4514C1.68641 19.2382 1.56665 18.9491 1.56665 18.6477V8.01899C1.56665 7.71753 1.68641 7.42841 1.89957 7.21525C2.11274 7.00208 2.40185 6.88232 2.70332 6.88232H10.4653" stroke="black" stroke-opacity="0.9" stroke-width="0.666667" stroke-linecap="round" stroke-linejoin="round"/>
<path d="M18.852 10.4557H4.79731C4.26012 10.4557 3.82465 10.8912 3.82465 11.4284V16.06C3.82465 16.5972 4.26012 17.0327 4.79731 17.0327H18.852C19.3892 17.0327 19.8246 16.5972 19.8246 16.06V11.4284C19.8246 10.8912 19.3892 10.4557 18.852 10.4557Z" stroke="black" stroke-opacity="0.9" stroke-width="0.666667" stroke-linecap="round" stroke-linejoin="round"/>
<path d="M17.4653 12.7137H16.132V15.0471H17.4653M16.132 13.8804H17.132M11.4653 15.0471L10.4653 12.7137L9.46533 15.0471M9.79867 14.4884H11.132M6.46533 15.0471V12.7137L8.132 15.0471V12.7137M14.7987 15.0471V12.7137L13.7987 14.7137L12.7987 12.7137V15.0471" stroke="black" stroke-opacity="0.9" stroke-width="0.666667" stroke-linecap="round" stroke-linejoin="round"/>
<path d="M12.9816 3.41235H11.0186C10.732 3.41235 10.4996 3.64472 10.4996 3.93135V8.11769C10.4996 8.40432 10.732 8.63669 11.0186 8.63669H12.9816C13.2683 8.63669 13.5006 8.40432 13.5006 8.11769V3.93135C13.5006 3.64472 13.2683 3.41235 12.9816 3.41235Z" stroke="black" stroke-opacity="0.9" stroke-width="0.666667" stroke-miterlimit="10"/>
</svg>
