<svg width="230" height="230" viewBox="0 0 230 230" fill="none" xmlns="http://www.w3.org/2000/svg">
<path d="M201.204 146.708C201.204 146.708 224.706 120.295 217.235 74.336C209.765 28.3774 171.387 11.4448 145.935 20.2906C120.483 29.1364 114.743 44.5326 93.9552 53.337C73.1678 62.1414 33.6676 56.097 13.9152 85.6704C-5.83717 115.244 19.38 164.248 51.4834 194.976C83.5868 225.704 165.508 206.466 201.204 146.708Z" fill="#C81912"/>
<path opacity="0.7" d="M201.204 146.708C201.204 146.708 224.706 120.295 217.235 74.336C209.765 28.3774 171.387 11.4448 145.935 20.2906C120.483 29.1364 114.743 44.5326 93.9552 53.337C73.1678 62.1414 33.6676 56.097 13.9152 85.6704C-5.83717 115.244 19.38 164.248 51.4834 194.976C83.5868 225.704 165.508 206.466 201.204 146.708Z" fill="white"/>
<path d="M17.5947 152.196L23.4137 207.938" stroke="#263238" stroke-linecap="round" stroke-linejoin="round"/>
<path d="M22.581 200.054L19.9912 197.326" stroke="#263238" stroke-linecap="round" stroke-linejoin="round"/>
<path d="M20.847 198.219C20.8408 197.764 20.7375 197.315 20.5439 196.904C20.3503 196.492 20.071 196.126 19.7246 195.831C19.0024 195.187 15.1982 193.587 14.8394 194.911C14.4484 196.383 18.34 199.245 20.847 198.219Z" fill="#C81912" stroke="#263238" stroke-linecap="round" stroke-linejoin="round"/>
<path d="M20.8468 198.219L17.2266 195.965" stroke="#263238" stroke-linecap="round" stroke-linejoin="round"/>
<path d="M23.2253 206.2L20.6953 204.093" stroke="#263238" stroke-linecap="round" stroke-linejoin="round"/>
<path d="M21.551 204.985C21.5463 204.53 21.4441 204.082 21.2512 203.67C21.0584 203.258 20.7794 202.893 20.4332 202.598C19.711 201.949 15.9068 200.353 15.548 201.678C15.1524 203.145 19.044 206.006 21.551 204.985Z" fill="#C81912" stroke="#263238" stroke-linecap="round" stroke-linejoin="round"/>
<path d="M21.5509 204.985L17.9307 202.727" stroke="#263238" stroke-linecap="round" stroke-linejoin="round"/>
<path d="M20.8242 183.117L18.2666 180.817" stroke="#263238" stroke-linecap="round" stroke-linejoin="round"/>
<path d="M19.1219 181.7C19.1172 181.245 19.0149 180.797 18.8221 180.385C18.6293 179.973 18.3503 179.607 18.0041 179.313C17.2773 178.669 13.4777 177.068 13.1143 178.393C12.7233 179.86 16.6149 182.73 19.1219 181.7Z" fill="#C81912" stroke="#263238" stroke-linecap="round" stroke-linejoin="round"/>
<path d="M19.1222 181.709L15.502 179.455" stroke="#263238" stroke-linecap="round" stroke-linejoin="round"/>
<path d="M21.5368 190.311L18.9746 187.583" stroke="#263238" stroke-linecap="round" stroke-linejoin="round"/>
<path d="M19.8303 188.476C19.8242 188.021 19.7209 187.573 19.5273 187.161C19.3337 186.749 19.0544 186.383 18.7079 186.088C17.9857 185.44 14.1815 183.844 13.8227 185.168C13.4317 186.636 17.3233 189.52 19.8303 188.476Z" fill="#C81912" stroke="#263238" stroke-linecap="round" stroke-linejoin="round"/>
<path d="M19.8302 188.476L16.21 186.217" stroke="#263238" stroke-linecap="round" stroke-linejoin="round"/>
<path d="M19.6833 172.44L17.1211 169.827" stroke="#263238" stroke-linecap="round" stroke-linejoin="round"/>
<path d="M17.9763 170.72C17.9702 170.265 17.8669 169.817 17.6733 169.405C17.4797 168.993 17.2004 168.627 16.8539 168.332C16.1317 167.684 12.3321 166.088 11.9687 167.412C11.5777 168.88 15.4693 171.741 17.9763 170.72Z" fill="#C81912" stroke="#263238" stroke-linecap="round" stroke-linejoin="round"/>
<path d="M17.9766 170.72L14.3564 168.461" stroke="#263238" stroke-linecap="round" stroke-linejoin="round"/>
<path d="M18.4503 160.687L15.9663 158.787" stroke="#263238" stroke-linecap="round" stroke-linejoin="round"/>
<path d="M16.822 159.68C16.8173 159.225 16.7151 158.777 16.5222 158.365C16.3294 157.953 16.0504 157.587 15.7042 157.292C14.982 156.648 11.1778 155.048 10.819 156.372C10.4234 157.844 14.315 160.706 16.822 159.68Z" fill="#C81912" stroke="#263238" stroke-linecap="round" stroke-linejoin="round"/>
<path d="M16.8219 159.68L13.2017 157.426" stroke="#263238" stroke-linecap="round" stroke-linejoin="round"/>
<path d="M22.333 196.296L24.472 192.809" stroke="#263238" stroke-linecap="round" stroke-linejoin="round"/>
<path d="M23.8187 193.858C23.7316 193.411 23.7403 192.951 23.8442 192.508C23.9481 192.064 24.1448 191.648 24.4213 191.287C24.9963 190.509 28.3865 188.159 29.0213 189.396C29.6975 190.739 26.4821 194.341 23.8187 193.858Z" fill="#C81912" stroke="#263238" stroke-linecap="round" stroke-linejoin="round"/>
<path d="M23.8184 193.858L26.3668 191.466" stroke="#263238" stroke-linecap="round" stroke-linejoin="round"/>
<path d="M20.4746 178.494L22.6136 175.002" stroke="#263238" stroke-linecap="round" stroke-linejoin="round"/>
<path d="M21.96 176.051C21.8718 175.605 21.88 175.145 21.9839 174.703C22.0878 174.26 22.2851 173.845 22.5626 173.484C23.1376 172.702 25.7826 170.747 26.4174 171.985C27.1028 173.328 24.6234 176.534 21.96 176.051Z" fill="#C81912" stroke="#263238" stroke-linecap="round" stroke-linejoin="round"/>
<path d="M21.96 176.051L25.2214 172.937" stroke="#263238" stroke-linecap="round" stroke-linejoin="round"/>
<path d="M19.6558 170.669L21.7994 167.178" stroke="#263238" stroke-linecap="round" stroke-linejoin="round"/>
<path d="M21.1598 168.227C21.0702 167.781 21.0776 167.32 21.1815 166.878C21.2855 166.435 21.4836 166.019 21.7624 165.66C22.3328 164.878 25.723 162.532 26.3624 163.765C27.0248 165.108 23.8094 168.71 21.1598 168.227Z" fill="#C81912" stroke="#263238" stroke-linecap="round" stroke-linejoin="round"/>
<path d="M21.146 168.227L24.4028 165.112" stroke="#263238" stroke-linecap="round" stroke-linejoin="round"/>
<path d="M18.4595 159.197L20.5985 155.71" stroke="#263238" stroke-linecap="round" stroke-linejoin="round"/>
<path d="M19.9453 156.759C19.8572 156.313 19.8653 155.853 19.9693 155.41C20.0732 154.968 20.2705 154.552 20.5479 154.192C21.1229 153.41 24.5131 151.059 25.1479 152.297C25.8287 153.64 22.6087 157.242 19.9453 156.759Z" fill="#C81912" stroke="#263238" stroke-linecap="round" stroke-linejoin="round"/>
<path d="M19.9453 156.759L23.2067 153.64" stroke="#263238" stroke-linecap="round" stroke-linejoin="round"/>
<path d="M17.544 151.864C17.4558 151.418 17.464 150.959 17.5679 150.516C17.6718 150.073 17.8691 149.658 18.1466 149.298C18.7216 148.516 22.1118 146.17 22.7466 147.402C23.4274 148.746 20.2074 152.347 17.544 151.864Z" fill="#C81912" stroke="#263238" stroke-linecap="round" stroke-linejoin="round"/>
<path d="M17.5439 151.864L20.8053 148.75" stroke="#263238" stroke-linecap="round" stroke-linejoin="round"/>
<path d="M17.7329 151.998C17.2804 152.039 16.8243 151.984 16.3951 151.835C15.9658 151.685 15.5735 151.446 15.2443 151.133C14.5267 150.48 12.5441 146.86 13.8413 146.363C15.2489 145.82 18.4965 149.403 17.7329 151.998Z" fill="#C81912" stroke="#263238" stroke-linecap="round" stroke-linejoin="round"/>
<path d="M17.7329 151.998L14.9775 148.433" stroke="#263238" stroke-linecap="round" stroke-linejoin="round"/>
<path d="M26.896 136.165V207.8" stroke="#263238" stroke-linecap="round" stroke-linejoin="round"/>
<path d="M33.9706 160.388L29.021 208.076" stroke="#263238" stroke-linecap="round" stroke-linejoin="round"/>
<path d="M29.1039 207.727L27.6733 206.094" stroke="#263238" stroke-linecap="round" stroke-linejoin="round"/>
<path d="M27.6733 206.08C27.7615 205.634 27.7533 205.174 27.6494 204.732C27.5455 204.289 27.3482 203.874 27.0707 203.513C26.4957 202.731 23.1055 200.385 22.4707 201.623C21.7899 202.98 25.0099 206.581 27.6733 206.08Z" fill="#C81912" stroke="#263238" stroke-linecap="round" stroke-linejoin="round"/>
<path d="M27.6736 206.094L24.5962 203.141" stroke="#263238" stroke-linecap="round" stroke-linejoin="round"/>
<path d="M30.8472 190.744L28.7266 188.973" stroke="#263238" stroke-linecap="round" stroke-linejoin="round"/>
<path d="M29.3892 189.584C29.4773 189.138 29.4687 188.678 29.364 188.235C29.2592 187.792 29.0608 187.377 28.782 187.018C28.207 186.236 24.8168 183.89 24.182 185.122C23.5058 186.47 26.7258 190.067 29.3892 189.584Z" fill="#C81912" stroke="#263238" stroke-linecap="round" stroke-linejoin="round"/>
<path d="M29.3894 189.585L26.312 186.631" stroke="#263238" stroke-linecap="round" stroke-linejoin="round"/>
<path d="M30.1758 198.789L28.0322 195.302" stroke="#263238" stroke-linecap="round" stroke-linejoin="round"/>
<path d="M28.6855 196.351C28.7737 195.905 28.7655 195.445 28.6616 195.002C28.5577 194.56 28.3604 194.144 28.0829 193.784C27.5079 193.002 24.1177 190.656 23.4829 191.889C22.8021 193.237 26.0221 196.834 28.6855 196.351Z" fill="#C81912" stroke="#263238" stroke-linecap="round" stroke-linejoin="round"/>
<path d="M28.6853 196.351L25.6079 193.398" stroke="#263238" stroke-linecap="round" stroke-linejoin="round"/>
<path d="M31.9194 179.901L29.877 177.546" stroke="#263238" stroke-linecap="round" stroke-linejoin="round"/>
<path d="M30.5298 178.59C30.6179 178.144 30.6093 177.684 30.5046 177.241C30.3998 176.798 30.2014 176.383 29.9226 176.024C29.3476 175.246 25.9574 172.896 25.3226 174.133C24.6464 175.476 27.8664 179.078 30.5298 178.59Z" fill="#C81912" stroke="#263238" stroke-linecap="round" stroke-linejoin="round"/>
<path d="M30.53 178.59L27.4526 175.642" stroke="#263238" stroke-linecap="round" stroke-linejoin="round"/>
<path d="M32.9908 169.57L31.022 166.506" stroke="#263238" stroke-linecap="round" stroke-linejoin="round"/>
<path d="M31.6753 167.555C31.7634 167.109 31.7548 166.649 31.6501 166.206C31.5453 165.763 31.3469 165.348 31.0681 164.988C30.4931 164.206 27.1029 161.86 26.4681 163.093C25.7919 164.441 29.0119 168.038 31.6753 167.555Z" fill="#C81912" stroke="#263238" stroke-linecap="round" stroke-linejoin="round"/>
<path d="M31.6755 167.555L28.5981 164.602" stroke="#263238" stroke-linecap="round" stroke-linejoin="round"/>
<path d="M29.5225 204.521L32.3377 201.544" stroke="#263238" stroke-linecap="round" stroke-linejoin="round"/>
<path d="M31.4824 202.437C31.4871 201.982 31.5893 201.534 31.7822 201.122C31.975 200.71 32.254 200.344 32.6002 200.049C33.3224 199.405 37.1266 197.8 37.4854 199.129C37.881 200.597 33.9894 203.458 31.4824 202.437Z" fill="#C81912" stroke="#263238" stroke-linecap="round" stroke-linejoin="round"/>
<path d="M31.4824 202.437L35.3142 200.059" stroke="#263238" stroke-linecap="round" stroke-linejoin="round"/>
<path d="M31.3716 186.714L34.1822 183.742" stroke="#263238" stroke-linecap="round" stroke-linejoin="round"/>
<path d="M33.3315 184.63C33.3362 184.175 33.4384 183.727 33.6313 183.315C33.8241 182.903 34.1031 182.538 34.4493 182.243C35.1715 181.599 38.9711 179.998 39.3345 181.323C39.7255 182.79 35.8385 185.656 33.3315 184.63Z" fill="#C81912" stroke="#263238" stroke-linecap="round" stroke-linejoin="round"/>
<path d="M33.3315 184.63L37.1633 182.257" stroke="#263238" stroke-linecap="round" stroke-linejoin="round"/>
<path d="M32.186 178.889L34.9966 175.918" stroke="#263238" stroke-linecap="round" stroke-linejoin="round"/>
<path d="M34.1411 176.806C34.1485 176.351 34.2519 175.904 34.4445 175.492C34.6372 175.081 34.9147 174.715 35.2589 174.418C35.9811 173.774 39.7853 172.173 40.1441 173.498C40.5397 174.966 36.6481 177.831 34.1411 176.806Z" fill="#C81912" stroke="#263238" stroke-linecap="round" stroke-linejoin="round"/>
<path d="M34.1411 176.806L37.9729 174.432" stroke="#263238" stroke-linecap="round" stroke-linejoin="round"/>
<path d="M33.3408 166.833L36.1882 164.445" stroke="#263238" stroke-linecap="round" stroke-linejoin="round"/>
<path d="M35.3325 165.338C35.3372 164.883 35.4394 164.435 35.6323 164.023C35.8251 163.611 36.1041 163.245 36.4503 162.95C37.1725 162.302 40.9767 160.701 41.3355 162.03C41.7311 163.498 37.8395 166.359 35.3325 165.338Z" fill="#C81912" stroke="#263238" stroke-linecap="round" stroke-linejoin="round"/>
<path d="M35.3325 165.338L39.1643 162.96" stroke="#263238" stroke-linecap="round" stroke-linejoin="round"/>
<path d="M33.9893 160.052C33.9942 159.598 34.0966 159.149 34.2894 158.738C34.4822 158.326 34.761 157.96 35.1071 157.665C35.8293 157.021 39.6289 155.42 39.9923 156.745C40.3833 158.212 36.4963 161.078 33.9893 160.052Z" fill="#C81912" stroke="#263238" stroke-linecap="round" stroke-linejoin="round"/>
<path d="M33.9893 160.052L37.8211 157.679" stroke="#263238" stroke-linecap="round" stroke-linejoin="round"/>
<path d="M34.1456 160.223C33.6922 160.168 33.2558 160.017 32.8661 159.779C32.4764 159.54 32.1425 159.221 31.887 158.843C31.3212 158.056 30.1252 154.109 31.496 153.888C32.9864 153.672 35.4198 157.84 34.1456 160.223Z" fill="#C81912" stroke="#263238" stroke-linecap="round" stroke-linejoin="round"/>
<path d="M34.1454 160.223L32.1812 156.165" stroke="#263238" stroke-linecap="round" stroke-linejoin="round"/>
<path d="M26.7949 199.944L24.4673 196.834" stroke="#263238" stroke-linecap="round" stroke-linejoin="round"/>
<path d="M25.226 197.8C25.2692 197.35 25.2161 196.897 25.0701 196.469C24.9242 196.042 24.6888 195.65 24.3796 195.321C23.731 194.603 20.1154 192.616 19.614 193.913C19.0528 195.321 22.627 198.568 25.226 197.8Z" fill="#C81912" stroke="#263238" stroke-linecap="round" stroke-linejoin="round"/>
<path d="M25.2261 197.809L21.8589 195.192" stroke="#263238" stroke-linecap="round" stroke-linejoin="round"/>
<path d="M26.8777 184.943L24.4673 182.698" stroke="#263238" stroke-linecap="round" stroke-linejoin="round"/>
<path d="M25.226 183.673C25.2706 183.221 25.2182 182.765 25.0722 182.335C24.9263 181.905 24.6901 181.511 24.3796 181.18C23.731 180.463 20.1154 178.48 19.614 179.773C19.0528 181.18 22.627 184.428 25.226 183.673Z" fill="#C81912" stroke="#263238" stroke-linecap="round" stroke-linejoin="round"/>
<path d="M25.2261 183.674L21.8589 181.052" stroke="#263238" stroke-linecap="round" stroke-linejoin="round"/>
<path d="M26.9559 169.344L24.4673 166.097" stroke="#263238" stroke-linecap="round" stroke-linejoin="round"/>
<path d="M25.226 167.072C25.2706 166.621 25.2181 166.165 25.0721 165.736C24.9261 165.307 24.69 164.914 24.3796 164.583C23.731 163.866 20.1154 161.879 19.614 163.176C19.0528 164.583 22.627 167.831 25.226 167.072Z" fill="#C81912" stroke="#263238" stroke-linecap="round" stroke-linejoin="round"/>
<path d="M25.2261 167.072L21.8589 164.455" stroke="#263238" stroke-linecap="round" stroke-linejoin="round"/>
<path d="M26.7949 157.145L24.4673 155.048" stroke="#263238" stroke-linecap="round" stroke-linejoin="round"/>
<path d="M25.226 156.023C25.2706 155.571 25.2182 155.115 25.0722 154.685C24.9263 154.255 24.6901 153.861 24.3796 153.53C23.731 152.817 20.1154 150.829 19.614 152.122C19.0528 153.53 22.627 156.782 25.226 156.023Z" fill="#C81912" stroke="#263238" stroke-linecap="round" stroke-linejoin="round"/>
<path d="M25.2261 156.023L21.8589 153.401" stroke="#263238" stroke-linecap="round" stroke-linejoin="round"/>
<path d="M26.9282 146.091L24.5132 144.32" stroke="#263238" stroke-linecap="round" stroke-linejoin="round"/>
<path d="M25.226 144.923C25.2706 144.472 25.2181 144.016 25.0721 143.587C24.9261 143.158 24.69 142.765 24.3796 142.434C23.731 141.717 20.1154 139.73 19.614 141.027C19.0528 142.434 22.627 145.682 25.226 144.923Z" fill="#C81912" stroke="#263238" stroke-linecap="round" stroke-linejoin="round"/>
<path d="M25.2261 144.923L21.8589 142.306" stroke="#263238" stroke-linecap="round" stroke-linejoin="round"/>
<path d="M27.3838 203.702L29.394 201.154" stroke="#263238" stroke-linecap="round" stroke-linejoin="round"/>
<path d="M28.6347 202.129C28.5953 201.676 28.6519 201.221 28.801 200.792C28.95 200.363 29.1881 199.971 29.4995 199.64C30.1527 198.923 33.7683 196.94 34.2651 198.233C34.8079 199.64 31.2337 202.883 28.6347 202.129Z" fill="#C81912" stroke="#263238" stroke-linecap="round" stroke-linejoin="round"/>
<path d="M28.6348 202.129L32.1998 199.369" stroke="#263238" stroke-linecap="round" stroke-linejoin="round"/>
<path d="M26.9004 181.916L29.3936 178.664" stroke="#263238" stroke-linecap="round" stroke-linejoin="round"/>
<path d="M28.6349 179.639C28.5934 179.187 28.6491 178.731 28.7982 178.301C28.9474 177.872 29.1865 177.48 29.4997 177.151C30.1529 176.433 33.7685 174.446 34.2653 175.743C34.8081 177.151 31.2339 180.398 28.6349 179.639Z" fill="#C81912" stroke="#263238" stroke-linecap="round" stroke-linejoin="round"/>
<path d="M28.6348 179.639L32.1998 176.879" stroke="#263238" stroke-linecap="round" stroke-linejoin="round"/>
<path d="M26.9004 170.816L29.3936 167.569" stroke="#263238" stroke-linecap="round" stroke-linejoin="round"/>
<path d="M28.6349 168.544C28.5961 168.092 28.653 167.638 28.8021 167.21C28.9511 166.782 29.1888 166.39 29.4997 166.06C30.1529 165.342 33.7685 163.36 34.2653 164.652C34.8081 166.06 31.2339 169.28 28.6349 168.544Z" fill="#C81912" stroke="#263238" stroke-linecap="round" stroke-linejoin="round"/>
<path d="M28.6348 168.544L32.1998 165.784" stroke="#263238" stroke-linecap="round" stroke-linejoin="round"/>
<path d="M26.9004 156.147L29.3936 152.899" stroke="#263238" stroke-linecap="round" stroke-linejoin="round"/>
<path d="M28.6346 153.875C28.5945 153.422 28.6508 152.965 28.7999 152.535C28.9489 152.106 29.1874 151.712 29.4994 151.381C30.1526 150.664 33.7682 148.681 34.265 149.974C34.8078 151.381 31.2336 154.634 28.6346 153.875Z" fill="#C81912" stroke="#263238" stroke-linecap="round" stroke-linejoin="round"/>
<path d="M28.6348 153.875L32.1998 151.115" stroke="#263238" stroke-linecap="round" stroke-linejoin="round"/>
<path d="M27.0107 143.488L29.4487 141.583" stroke="#263238" stroke-linecap="round" stroke-linejoin="round"/>
<path d="M28.6349 142.342C28.5934 141.888 28.6491 141.43 28.7982 140.998C28.9473 140.567 29.1864 140.172 29.4997 139.84C30.1529 139.122 33.7685 137.14 34.2653 138.432C34.8081 139.84 31.2339 143.097 28.6349 142.342Z" fill="#C81912" stroke="#263238" stroke-linecap="round" stroke-linejoin="round"/>
<path d="M28.6348 142.342L32.1998 139.582" stroke="#263238" stroke-linecap="round" stroke-linejoin="round"/>
<path d="M26.7534 137.227C26.7109 136.775 26.7643 136.32 26.9102 135.89C27.056 135.46 27.2911 135.066 27.5998 134.734C28.253 134.016 31.8686 132.034 32.3654 133.326C32.9266 134.734 29.3524 138 26.7534 137.227Z" fill="#C81912" stroke="#263238" stroke-linecap="round" stroke-linejoin="round"/>
<path d="M26.7534 137.227L30.3184 134.467" stroke="#263238" stroke-linecap="round" stroke-linejoin="round"/>
<path d="M26.9282 137.379C26.4732 137.373 26.0249 137.27 25.6131 137.076C25.2014 136.882 24.8358 136.603 24.5408 136.257C23.8968 135.534 22.3006 131.73 23.6208 131.371C25.0974 130.98 27.954 134.872 26.9282 137.379Z" fill="#C81912" stroke="#263238" stroke-linecap="round" stroke-linejoin="round"/>
<path d="M26.9283 137.379L24.5547 133.543" stroke="#263238" stroke-linecap="round" stroke-linejoin="round"/>
<path opacity="0.2" d="M42.9226 72.4868L68.9126 76.6958L111.38 70.84L143.042 79.2488L174.979 72.1234L204.59 128.759L156.869 140.019L111.076 135.3L57.5552 140.346L23.8188 126.891L42.9226 72.4868Z" fill="black"/>
<path d="M35.5716 49.2936L64.2388 53.935L111.09 47.4766L146.013 56.7502L181.244 48.8888L213.914 111.371L161.271 123.791L110.754 118.583L51.713 124.149L14.499 109.31L35.5716 49.2936Z" fill="white" stroke="#263238" stroke-linecap="round" stroke-linejoin="round"/>
<path d="M41.0227 53.3278L63.4156 57.362L110.832 51.313L146.745 59.7862L177.818 52.7252L204.456 109.089L159.51 120.267L111.081 115.621L52.118 119.71L23.9521 107.221L41.0227 53.3278Z" fill="#C81912" stroke="#263238" stroke-linecap="round" stroke-linejoin="round"/>
<g opacity="0.64">
<path d="M168.566 78.2552L151.206 82.8001H145.925C145.925 82.8001 152.719 89.3412 165.797 90.597C178.875 91.8528 181.897 89.3413 181.897 89.3413L168.566 78.2552Z" fill="white"/>
<path d="M93.099 55.3656L81.5254 57.8818L80.0166 61.9068L87.3122 60.398L85.5504 69.4508L94.1064 68.448L95.6152 58.1302L93.099 55.3656Z" fill="white"/>
<path d="M85.8037 70.9596L85.0493 75.4906L90.0817 74.4832V70.7112L85.8037 70.9596Z" fill="white"/>
<path d="M82.786 70.9596L81.7786 75.992L71.9668 77.2524L72.2198 73.7288L82.786 70.9596Z" fill="white"/>
<path d="M140.76 93.3524C135.967 93.3524 132.08 95.8272 132.08 98.8724C132.08 101.918 135.967 104.392 140.76 104.392C145.553 104.392 149.44 101.913 149.44 98.8724C149.44 95.8318 145.562 93.3524 140.76 93.3524ZM140.76 101.398C138.579 101.398 136.813 100.275 136.813 98.8862C136.813 97.497 138.579 96.37 140.76 96.37C142.94 96.37 144.716 97.52 144.716 98.9C144.716 100.28 142.949 101.398 140.76 101.398Z" fill="white"/>
<path d="M71.9666 113.224L78.7608 96.6184L63.6682 97.3774L61.4004 103.16H68.443L63.1622 115.235L71.9666 113.224Z" fill="white"/>
<path d="M101.149 76.9994L111.209 74.7362L124.292 78.7612L114.227 80.5184L111.462 78.2552L101.149 80.27V76.9994Z" fill="white"/>
<path d="M101.65 67.4406L101.903 73.9818L106.43 72.9744L105.675 67.1876L101.65 67.4406Z" fill="white"/>
<path d="M39.0123 70.9596L34.9873 82.5332L51.3403 86.8112L53.8565 77.7538L46.8139 71.2126L39.0123 70.9596Z" fill="white"/>
</g>
<path d="M201.02 101.812L194.511 95.3717C195.633 95.2291 196.719 95.0727 197.759 94.9117L196.944 93.1821C195.643 93.3753 194.276 93.5593 192.85 93.7249L173.448 74.5199C178.604 73.7517 183.503 73.0893 187.248 72.7029L186.415 70.9457C182.367 71.3781 177.215 72.0911 171.907 72.8915L171.962 72.5557L171.341 72.4591L164.501 65.6879L179.86 57.0077L179.073 55.3425L163.157 64.3401L156.349 57.6057L154.224 58.0657L168.268 71.9577L123.602 64.9703C123.386 64.4781 123.17 63.9859 122.972 63.4799C121.695 60.2376 120.703 56.8899 120.009 53.4749L118.031 53.0149C118.758 56.8022 119.836 60.5136 121.251 64.1009L121.472 64.6391L111.007 62.9969L100.206 63.9399L99.82 52.7159L97.9799 52.9505L98.9874 83.6555C98.3618 83.6555 97.7362 83.6555 97.1474 83.6279C80.1504 83.1357 61.7917 78.1769 59.0731 76.6957C57.2331 75.6791 53.0931 70.8905 50.8897 68.1719C55.3931 67.9373 59.7494 67.3301 62.3254 65.9915C65.8582 64.1515 74.2164 59.2985 81.3969 55.0665L76.7601 55.6599C70.6283 59.2525 64.3954 62.8497 61.4836 64.3585C56.2718 67.0633 42.3153 66.5021 36.9563 66.1709L36.3813 67.9833C38.3777 68.1167 41.8646 68.3007 45.7286 68.3007C46.6486 68.3007 47.6375 68.3007 48.6081 68.2639C49.2981 69.1379 55.3472 76.7555 58.1946 78.3103C61.042 79.8651 79.5247 84.9573 97.0967 85.4633C97.7438 85.4817 98.4016 85.4909 99.0701 85.4909L99.2082 89.6907L85.146 90.1001L84.9343 90.0265L84.9067 90.1047L56.9755 90.9189L31.188 84.3869L30.6313 86.1441L46.5152 90.1599L31.7952 110.69L33.5155 111.449L48.4471 90.6475L56.7915 92.7589L84.2674 91.9585L76.268 114.54L66.8701 118.68L72.2889 118.307L111.076 101.232L138.754 86.4063C141.905 88.5066 145.304 90.2064 148.874 91.4663C152.114 92.602 155.421 93.5315 158.778 94.2493L154.721 102.368L138 118.22L140.429 118.45L156.106 103.592L156.221 103.482L160.646 94.6311C165.304 95.5144 170.021 96.0555 174.759 96.2503L171.033 117.41L172.988 116.927L176.64 96.3009C177.601 96.3239 178.554 96.3423 179.497 96.3423C183.733 96.3378 187.967 96.1059 192.179 95.6477L203.325 106.688L201.02 101.812ZM78.5772 113.533L86.2224 91.9125L99.268 91.5399L99.6866 104.25L78.5772 113.533ZM167.063 73.6597C156.391 75.3433 146.202 77.1649 143.985 77.6065L142.145 77.9791C140.176 78.3885 137.108 79.0279 133.382 79.7271C129.709 76.0173 126.702 71.7041 124.49 66.9759L167.063 73.6597ZM100.28 65.7799L110.929 64.8599L122.309 66.6447C124.532 71.6073 127.565 76.1653 131.284 80.1319C125.028 81.2681 117.3 82.4917 109.77 83.1587L109.692 83.0437L109.48 83.1863C106.536 83.4393 103.629 83.6095 100.85 83.6463L100.28 65.7799ZM100.924 85.4679C102.709 85.4403 104.549 85.3575 106.412 85.2379L101.039 88.8627L100.924 85.4679ZM110.317 99.5531L101.513 103.426L101.108 91.0385L110.124 84.9527C118.183 84.2259 126.431 82.8827 132.88 81.6867C134.204 82.9506 135.607 84.1291 137.08 85.2149L110.317 99.5531ZM149.5 89.6999C144.179 87.8661 139.271 85.0026 135.056 81.2727C138.207 80.6701 140.797 80.1319 142.536 79.7685L144.343 79.3959C147.628 78.7381 159.707 76.6359 171.175 74.8649L190.495 93.9687C178.88 95.0865 163.976 94.8151 149.5 89.6999Z" fill="white" stroke="#263238" stroke-linecap="round" stroke-linejoin="round"/>
<path d="M54.8641 103.873L51.9155 121.123" stroke="#263238" stroke-linecap="round" stroke-linejoin="round"/>
<path d="M63.0151 56.1522L55.4619 100.367" stroke="#263238" stroke-linecap="round" stroke-linejoin="round"/>
<path d="M110.708 49.3258L110.961 67.1876" stroke="#263238" stroke-linecap="round" stroke-linejoin="round"/>
<path d="M147.931 70.5179L158.254 113.979" stroke="#263238" stroke-linecap="round" stroke-linejoin="round"/>
<path d="M145.171 58.8845L147.439 68.4433" stroke="#263238" stroke-linecap="round" stroke-linejoin="round"/>
<path d="M111.209 117.249L110.961 106.683" stroke="#263238" stroke-linecap="round" stroke-linejoin="round"/>
<path d="M168.548 33.7191C171.842 32.9366 173.879 29.6312 173.097 26.3363C172.314 23.0415 169.009 21.0048 165.714 21.7874C162.419 22.5699 160.382 25.8752 161.165 29.1701C161.947 32.4649 165.253 34.5016 168.548 33.7191Z" fill="#263238"/>
<path d="M170.094 27.1952C170.095 26.5517 169.905 25.9225 169.548 25.3871C169.192 24.8517 168.684 24.4341 168.09 24.1872C167.496 23.9404 166.842 23.8753 166.21 24.0003C165.579 24.1253 164.999 24.4346 164.544 24.8893C164.089 25.3439 163.779 25.9234 163.653 26.5544C163.527 27.1854 163.591 27.8395 163.837 28.4341C164.083 29.0286 164.5 29.5368 165.035 29.8943C165.57 30.2519 166.199 30.4428 166.842 30.4428C167.704 30.4428 168.53 30.1007 169.14 29.4918C169.75 28.8829 170.093 28.0569 170.094 27.1952Z" stroke="white" stroke-width="2" stroke-linecap="round" stroke-linejoin="round"/>
<path d="M169.068 29.7573L171.12 31.6387" stroke="white" stroke-width="2" stroke-linecap="round" stroke-linejoin="round"/>
<path d="M151.832 34.5H54.0361C53.1608 34.5 52.2942 34.3274 51.4857 33.992C50.6772 33.6567 49.9428 33.1652 49.3246 32.5456C48.7063 31.9261 48.2163 31.1907 47.8826 30.3815C47.5489 29.5723 47.3781 28.7053 47.3799 27.83C47.3781 26.9548 47.5489 26.0877 47.8826 25.2786C48.2163 24.4694 48.7063 23.734 49.3246 23.1145C49.9428 22.4949 50.6772 22.0034 51.4857 21.668C52.2942 21.3327 53.1608 21.16 54.0361 21.16H151.832C152.708 21.1594 153.575 21.3316 154.384 21.6667C155.193 22.0018 155.928 22.4932 156.547 23.1128C157.165 23.7324 157.656 24.4681 157.99 25.2775C158.324 26.087 158.495 26.9544 158.493 27.83C158.495 28.7057 158.324 29.5731 157.99 30.3826C157.656 31.192 157.165 31.9276 156.547 32.5472C155.928 33.1668 155.193 33.6583 154.384 33.9934C153.575 34.3285 152.708 34.5006 151.832 34.5Z" fill="white" stroke="#263238" stroke-linecap="round" stroke-linejoin="round"/>
<path d="M203.094 165.678H175.954C174.602 165.675 173.3 166.189 172.316 167.116C171.331 168.042 170.739 169.31 170.66 170.66L168.558 207.92H206.314L208.38 171.267C208.421 170.548 208.314 169.828 208.067 169.152C207.819 168.476 207.437 167.857 206.942 167.333C206.447 166.81 205.85 166.393 205.189 166.109C204.527 165.824 203.815 165.678 203.094 165.678Z" fill="#263238" stroke="#263238" stroke-linecap="round" stroke-linejoin="round"/>
<path d="M150.742 152.214C150.742 152.214 136.942 155.135 135.755 156.694C134.568 158.254 111.228 196.793 111.228 196.793C111.228 196.793 112.199 206.333 113.758 206.135C115.317 205.937 114.926 207.304 120.198 203.803C125.47 200.302 135.774 191.733 135.774 191.733L141.22 207.888H186.76C186.76 207.888 187.146 157.081 185.785 153.58C184.423 150.08 173.135 147.545 169.225 147.545C165.315 147.545 150.742 152.214 150.742 152.214Z" fill="white" stroke="#263238" stroke-linecap="round" stroke-linejoin="round"/>
<path d="M149.638 169.74L152.752 172.854L166.235 147.95C160.554 149.081 150.742 152.219 150.742 152.219C150.742 152.219 143.81 153.686 139.352 155.094L133.451 160.338C128.262 168.719 115.971 188.95 112.291 195.035L113.763 206.14C115.308 205.951 114.931 207.304 120.175 203.808C125.419 200.312 135.751 191.737 135.751 191.737L138.331 199.396C137.706 196.176 135.231 183.172 136.137 180.9C137.181 178.301 149.638 169.74 149.638 169.74Z" fill="#263238" stroke="#263238" stroke-linecap="round" stroke-linejoin="round"/>
<path d="M147.821 158.314L135.884 175.706V165.844L147.821 158.314Z" fill="white" stroke="#263238" stroke-linecap="round" stroke-linejoin="round"/>
<path d="M152.959 178.531C152.959 178.531 151.533 189.768 151.712 191.733C151.892 193.697 155.098 205.643 155.098 205.643" fill="white"/>
<path d="M152.959 178.531C152.959 178.531 151.533 189.768 151.712 191.733C151.892 193.697 155.098 205.643 155.098 205.643" stroke="#263238" stroke-linecap="round" stroke-linejoin="round"/>
<path d="M151.34 151.096C151.34 151.096 148.009 157.472 145.479 163.116C142.949 168.76 142.945 172.85 142.945 172.85C142.945 172.85 151.51 167.205 152.485 166.621C153.46 166.037 155.406 165.062 155.406 165.062L166.308 172.85C166.308 172.85 167.279 163.893 167.688 154.358C168.098 144.822 164.767 141.119 162.044 140.926C159.321 140.732 151.34 151.096 151.34 151.096Z" fill="white" stroke="#263238" stroke-linecap="round" stroke-linejoin="round"/>
<path d="M125.249 131.785C125.249 131.785 120.244 143.584 121.67 146.565C123.096 149.546 126.56 144.661 126.56 144.661C126.56 144.661 128.11 155.268 130.851 154.431C133.593 153.594 137.751 150.259 137.751 150.259C137.751 150.259 142.163 157.292 145.144 157.292C148.124 157.292 151.34 151.096 151.34 151.096C151.34 151.096 155.871 133.096 156.11 131.192C156.349 129.288 155.512 116.886 148.598 114.503C141.684 112.12 131.56 118.556 128.703 122.36C125.847 126.164 125.249 131.785 125.249 131.785Z" fill="#263238" stroke="#263238" stroke-linecap="round" stroke-linejoin="round"/>
<path d="M132.25 141.703C132.25 141.703 130.691 147.154 130.691 148.907C130.691 150.659 130.304 156.888 130.107 158.056C129.909 159.224 110.06 183.558 107.139 188.416C104.218 193.274 102.663 197.763 105.579 201.655C108.496 205.546 111.421 206.913 113.758 206.131C116.095 205.349 115.897 205.937 119.596 201.848C123.294 197.759 134.389 164.473 134.389 164.473C134.389 164.473 137.894 162.725 139.449 161.557C141.004 160.388 143.732 153.962 143.732 153.962L132.25 141.703Z" fill="#ADADAD" stroke="#263238" stroke-linecap="round" stroke-linejoin="round"/>
<path d="M105.579 201.659C108.5 205.551 111.421 206.917 113.758 206.135C116.095 205.353 115.897 205.942 119.595 201.853C120.391 200.974 121.532 198.743 122.815 195.781C118.34 196.885 113.073 197.621 111.992 196.986C108.877 195.146 107.125 188.421 107.125 188.421C104.218 193.287 102.663 197.768 105.579 201.659Z" fill="white" stroke="#263238" stroke-linecap="round" stroke-linejoin="round"/>
<path d="M130.378 128.915C130.378 128.915 132.218 133.018 132.218 135.484C132.218 137.949 129.55 141.436 131.192 144.104C132.834 146.772 137.963 157.237 137.963 157.237C137.963 157.237 140.631 158.677 143.304 157.237C145.976 155.797 151.51 153.134 151.51 153.134C151.51 153.134 150.691 167.5 151.717 170.991C152.743 174.483 153.359 176.12 153.359 176.12C153.359 176.12 156.027 164.422 158.879 159.1C161.731 153.778 163.189 144.32 163.189 144.32C163.189 144.32 162.982 140.64 163.189 136.933C163.396 133.225 157.646 119.076 148.41 115.998C139.173 112.921 134.044 115.998 131.578 119.678C129.113 123.358 130.378 128.915 130.378 128.915Z" fill="#ADADAD" stroke="#263238" stroke-linecap="round" stroke-linejoin="round"/>
<path d="M136.128 141.22C136.128 141.22 139.205 145.121 143.313 141.836" stroke="#263238" stroke-linecap="round" stroke-linejoin="round"/>
<path d="M139.205 146.565C139.205 146.565 145.567 148.207 148.865 142.048" stroke="#263238" stroke-linecap="round" stroke-linejoin="round"/>
<path d="M145.034 135.24C145.034 136.059 144.606 136.726 144.081 136.726C143.557 136.726 143.125 136.059 143.125 135.24C143.125 134.421 143.552 133.75 144.081 133.75C144.61 133.75 145.034 134.421 145.034 135.24Z" fill="#263238"/>
<path d="M135.976 135.24C135.976 136.059 135.548 136.726 135.024 136.726C134.499 136.726 134.067 136.059 134.067 135.24C134.067 134.421 134.495 133.75 135.024 133.75C135.553 133.75 135.976 134.421 135.976 135.24Z" fill="#263238"/>
<path d="M143.364 127.972C143.364 127.972 146.225 127.613 148.134 129.163" stroke="#263238" stroke-width="2" stroke-linecap="round" stroke-linejoin="round"/>
<path d="M136.689 127.972C135.287 127.973 133.932 128.481 132.875 129.403" stroke="#263238" stroke-width="2" stroke-linecap="round" stroke-linejoin="round"/>
<path d="M151.519 153.134L157.311 150.259L151.349 158.962L151.519 153.134Z" fill="#263238" stroke="#263238" stroke-linecap="round" stroke-linejoin="round"/>
<path d="M155.83 100.998C155.83 100.998 148.235 95.8686 144.132 96.6874C140.029 97.5062 129.968 104.507 128.124 105.105C126.279 105.703 116.421 110.441 116.421 113.928C116.421 117.415 120.939 118.855 120.939 118.855C120.939 118.855 109.853 128.515 112.728 130.355C115.603 132.195 122.788 128.303 122.788 128.303C122.788 128.303 118.271 135.488 121.146 136.1C124.021 136.712 128.34 131.992 128.34 131.992C128.34 131.992 129.366 133.635 132.448 130.557C135.53 127.48 139.426 121.32 139.426 121.32C139.426 121.32 139.017 125.424 141.266 124.807C143.515 124.191 146.4 120.088 146.4 120.088C146.4 120.088 148.24 138.971 151.119 137.535C153.999 136.1 153.994 134.251 153.994 134.251C153.994 134.251 154.197 141.846 156.046 141.229C157.895 140.613 158.921 138.561 158.921 138.561C158.921 138.561 160.972 146.358 163.433 146.156C164.116 146.114 164.765 145.85 165.284 145.405C165.803 144.96 166.163 144.358 166.308 143.69C166.308 143.69 166.925 152.311 172.261 150.466C177.597 148.621 178.42 142.871 178.42 142.871C178.42 142.871 182.316 147.389 184.575 144.104C186.834 140.82 185.38 136.712 185.38 136.712C185.38 136.712 189.06 136.303 188.664 133.225C188.269 130.148 181.07 120.911 181.07 120.911C181.07 120.911 185.582 121.523 182.505 116.394C179.428 111.265 173.885 106.734 169.984 104.282C167.699 102.824 165.209 101.717 162.596 100.998C162.596 100.998 168.751 98.7436 164.031 98.1272C159.312 97.5108 155.83 100.998 155.83 100.998Z" fill="#263238" stroke="#263238" stroke-linecap="round" stroke-linejoin="round"/>
<path d="M172.219 170.775L173.139 187.059C173.139 187.059 169.459 186.475 169.459 187.059C169.459 187.643 170.2 195.04 170.2 195.04C170.2 195.04 177.206 199.129 180.904 200.1C184.603 201.071 184.018 204.383 185.771 203.78C187.524 203.177 191.415 202.612 192.211 199.106C193.007 195.601 190.831 188.986 190.652 188.204C190.472 187.422 189.272 157.256 186.76 151.998C184.248 146.74 179.75 146.74 176.833 147.908C173.917 149.077 170.798 154.348 170.798 154.348" fill="white"/>
<path d="M172.219 170.775L173.139 187.059C173.139 187.059 169.459 186.475 169.459 187.059C169.459 187.643 170.2 195.04 170.2 195.04C170.2 195.04 177.206 199.129 180.904 200.1C184.603 201.071 184.018 204.383 185.771 203.78C187.524 203.177 191.415 202.612 192.211 199.106C193.007 195.601 190.831 188.986 190.652 188.204C190.472 187.422 189.272 157.256 186.76 151.998C184.248 146.74 179.75 146.74 176.833 147.908C173.917 149.077 170.798 154.348 170.798 154.348" stroke="#263238" stroke-linecap="round" stroke-linejoin="round"/>
<path d="M189.235 192.027C190.155 193.292 190.845 194.263 190.845 194.263" stroke="#263238" stroke-linecap="round" stroke-linejoin="round"/>
<path d="M174.878 186.3C174.878 186.3 182.473 185.909 184.027 186.3C184.828 186.498 186.599 188.6 188.135 190.583" stroke="#263238" stroke-linecap="round" stroke-linejoin="round"/>
<path d="M184.81 183.54C187.142 184.317 187.726 185.288 187.726 185.288" stroke="#263238" stroke-linecap="round" stroke-linejoin="round"/>
<path d="M175.66 184.529C177.362 184.108 179.085 183.778 180.821 183.54" stroke="#263238" stroke-linecap="round" stroke-linejoin="round"/>
<path d="M188.913 200.247C189.124 196.788 185.182 190.307 180.527 189.589C175.467 188.812 166.897 192.703 155.415 194.069C143.934 195.436 138.671 195.822 134.78 195.822C130.888 195.822 121.932 193.287 120.377 193.678C118.822 194.069 111.614 201.659 110.059 203.412C108.505 205.165 108.84 205.712 109.185 205.882C109.53 206.052 110.4 205.62 110.4 205.62C110.4 205.62 111.085 206.563 111.941 206.563C112.505 206.534 113.046 206.325 113.482 205.965C114.045 206.308 114.716 206.43 115.363 206.305C116.306 206.048 121.803 202.368 122.213 202.198C122.622 202.027 125.295 201.255 125.295 201.255C123.814 202.412 122.238 203.443 120.584 204.337C118.615 205.257 117.079 206.135 118.105 206.637C119.131 207.138 120.865 206.554 122.213 205.956C123.56 205.358 125.295 204.576 125.893 204.498C126.491 204.419 131.1 202.115 131.1 202.115C131.1 202.115 134.95 202.97 136.749 203.145C138.547 203.32 142.485 201.687 142.485 201.687C142.485 201.687 156.694 204.171 163.884 204.599C171.074 205.027 182.542 206.65 186.392 204.682C186.387 204.7 188.696 203.78 188.913 200.247Z" fill="#ADADAD" stroke="#263238" stroke-linecap="round" stroke-linejoin="round"/>
<path d="M113.463 205.97C113.463 205.97 119.402 200.036 120.051 199.53C120.699 199.024 124.462 197.97 124.462 197.97" stroke="#263238" stroke-linecap="round" stroke-linejoin="round"/>
<path d="M110.4 205.62C110.4 205.62 116.693 198.996 117.475 198.085C118.257 197.175 121.109 196.011 121.109 196.011" stroke="#263238" stroke-linecap="round" stroke-linejoin="round"/>
<path d="M47.4262 66.5482C46.8647 66.5482 46.3086 66.6589 45.7898 66.874C45.271 67.089 44.7997 67.4042 44.4029 67.8015C44.006 68.1988 43.6913 68.6704 43.4768 69.1894C43.2623 69.7085 43.1522 70.2646 43.1528 70.8262C43.1528 73.186 47.4262 77.5882 47.4262 77.5882C47.4262 77.5882 51.7042 73.186 51.7042 70.8262C51.7042 69.6916 51.2535 68.6035 50.4512 67.8012C49.649 66.9989 48.5608 66.5482 47.4262 66.5482ZM47.4262 72.5282C47.1395 72.5282 46.8591 72.4431 46.6207 72.2837C46.3824 72.1243 46.1966 71.8977 46.0871 71.6327C45.9776 71.3676 45.9491 71.076 46.0054 70.7948C46.0617 70.5136 46.2002 70.2555 46.4033 70.053C46.6064 69.8505 46.865 69.7129 47.1464 69.6575C47.4278 69.6021 47.7193 69.6315 47.9839 69.7418C48.2486 69.8522 48.4746 70.0387 48.6333 70.2775C48.7919 70.5164 48.8761 70.797 48.8752 71.0838C48.8728 71.4665 48.7191 71.8327 48.4476 72.1025C48.1761 72.3722 47.8089 72.5236 47.4262 72.5236V72.5282Z" fill="#263238" stroke="#263238" stroke-linecap="round" stroke-linejoin="round"/>
<path d="M91.8164 46.7682C91.2548 46.7682 90.6987 46.8789 90.1799 47.0939C89.6612 47.309 89.1899 47.6242 88.793 48.0215C88.3961 48.4188 88.0814 48.8904 87.8669 49.4094C87.6525 49.9284 87.5424 50.4846 87.543 51.0462C87.543 53.406 91.8164 57.8082 91.8164 57.8082C91.8164 57.8082 96.0944 53.406 96.0944 51.0462C96.0944 49.9116 95.6437 48.8235 94.8414 48.0212C94.0391 47.2189 92.951 46.7682 91.8164 46.7682ZM91.8164 52.7482C91.5296 52.7482 91.2493 52.6631 91.0109 52.5037C90.7725 52.3442 90.5868 52.1177 90.4772 51.8526C90.3677 51.5876 90.3393 51.296 90.3956 51.0148C90.4518 50.7336 90.5903 50.4754 90.7934 50.273C90.9965 50.0705 91.2551 49.9329 91.5365 49.8775C91.8179 49.8221 92.1094 49.8514 92.3741 49.9618C92.6388 50.0722 92.8647 50.2586 93.0234 50.4975C93.1821 50.7364 93.2663 51.017 93.2654 51.3038C93.2629 51.6865 93.1092 52.0527 92.8377 52.3224C92.5663 52.5922 92.1991 52.7436 91.8164 52.7436V52.7482Z" fill="#263238" stroke="#263238" stroke-linecap="round" stroke-linejoin="round"/>
<path d="M84.5759 76.8936C84.0143 76.893 83.4581 77.003 82.9391 77.2175C82.4201 77.432 81.9484 77.7467 81.5511 78.1436C81.1538 78.5405 80.8386 79.0118 80.6236 79.5305C80.4085 80.0493 80.2979 80.6054 80.2979 81.167C80.2979 83.5314 84.5759 87.929 84.5759 87.929C84.5759 87.929 88.8492 83.5314 88.8492 81.167C88.8492 80.0336 88.399 78.9466 87.5976 78.1452C86.7962 77.3438 85.7092 76.8936 84.5759 76.8936ZM84.5759 82.8736C84.2906 82.8736 84.0117 82.7891 83.7743 82.6308C83.537 82.4724 83.3519 82.2474 83.2423 81.984C83.1327 81.7206 83.1036 81.4307 83.1586 81.1507C83.2136 80.8708 83.3502 80.6134 83.5513 80.4111C83.7524 80.2087 84.0089 80.0704 84.2885 80.0136C84.568 79.9569 84.8582 79.9842 85.1223 80.0921C85.3863 80.2 85.6126 80.3837 85.7724 80.62C85.9322 80.8563 86.0184 81.1347 86.0203 81.42C86.0203 81.803 85.8681 82.1704 85.5972 82.4413C85.3263 82.7122 84.9589 82.8644 84.5759 82.8644V82.8736Z" fill="#263238" stroke="#263238" stroke-linecap="round" stroke-linejoin="round"/>
<path d="M170.366 74.1335C169.804 74.1329 169.248 74.243 168.729 74.4575C168.21 74.672 167.738 74.9867 167.341 75.3836C166.944 75.7805 166.629 76.2518 166.414 76.7705C166.199 77.2893 166.088 77.8454 166.088 78.4069C166.088 80.7713 170.366 85.1689 170.366 85.1689C170.366 85.1689 174.639 80.7713 174.639 78.4069C174.639 77.2736 174.189 76.1866 173.388 75.3852C172.586 74.5838 171.499 74.1335 170.366 74.1335ZM170.366 80.1135C170.081 80.1135 169.802 80.0291 169.564 79.8707C169.327 79.7124 169.142 79.4874 169.032 79.224C168.923 78.9606 168.894 78.6707 168.949 78.3907C169.004 78.1108 169.14 77.8534 169.341 77.651C169.542 77.4487 169.799 77.3104 170.079 77.2536C170.358 77.1969 170.648 77.2242 170.912 77.3321C171.176 77.44 171.403 77.6237 171.562 77.86C171.722 78.0963 171.808 78.3747 171.81 78.6599C171.81 79.043 171.658 79.4104 171.387 79.6813C171.116 79.9522 170.749 80.1043 170.366 80.1043V80.1135Z" fill="#263238" stroke="#263238" stroke-linecap="round" stroke-linejoin="round"/>
<path d="M121.376 87.7036C120.814 87.703 120.258 87.8131 119.739 88.0276C119.22 88.2421 118.748 88.5568 118.351 88.9536C117.954 89.3505 117.638 89.8218 117.423 90.3406C117.208 90.8594 117.098 91.4154 117.098 91.977C117.098 94.3414 121.376 98.739 121.376 98.739C121.376 98.739 125.649 94.3414 125.649 91.977C125.649 91.4158 125.539 90.8601 125.324 90.3417C125.109 89.8232 124.794 89.3521 124.397 88.9553C124.001 88.5584 123.529 88.2437 123.011 88.0289C122.493 87.8141 121.937 87.7036 121.376 87.7036ZM121.376 93.6836C121.09 93.6836 120.811 93.5991 120.574 93.4408C120.337 93.2825 120.152 93.0575 120.042 92.7941C119.933 92.5307 119.903 92.2407 119.958 91.9608C120.013 91.6809 120.15 91.4235 120.351 91.2211C120.552 91.0188 120.809 90.8805 121.088 90.8237C121.368 90.7669 121.658 90.7942 121.922 90.9021C122.186 91.0101 122.412 91.1938 122.572 91.4301C122.732 91.6664 122.818 91.9447 122.82 92.23C122.82 92.6131 122.668 92.9805 122.397 93.2514C122.126 93.5222 121.759 93.6744 121.376 93.6744V93.6836Z" fill="#263238" stroke="#263238" stroke-linecap="round" stroke-linejoin="round"/>
<path d="M139.316 50.6736C138.754 50.673 138.198 50.7831 137.679 50.9976C137.16 51.212 136.688 51.5267 136.291 51.9236C135.894 52.3205 135.578 52.7918 135.363 53.3106C135.148 53.8293 135.038 54.3854 135.038 54.947C135.038 57.3114 139.316 61.709 139.316 61.709C139.316 61.709 143.589 57.3114 143.589 54.947C143.589 53.8136 143.139 52.7267 142.337 51.9252C141.536 51.1238 140.449 50.6736 139.316 50.6736ZM139.316 56.6536C139.03 56.6536 138.751 56.5691 138.514 56.4108C138.277 56.2525 138.092 56.0274 137.982 55.764C137.872 55.5006 137.843 55.2107 137.898 54.9308C137.953 54.6508 138.09 54.3935 138.291 54.1911C138.492 53.9887 138.749 53.8504 139.028 53.7937C139.308 53.7369 139.598 53.7642 139.862 53.8721C140.126 53.98 140.352 54.1637 140.512 54.4C140.672 54.6364 140.758 54.9147 140.76 55.2C140.76 55.5831 140.608 55.9505 140.337 56.2213C140.066 56.4922 139.699 56.6444 139.316 56.6444V56.6536Z" fill="#263238" stroke="#263238" stroke-linecap="round" stroke-linejoin="round"/>
<path d="M125.203 205.689H38.0054V208.182H125.203V205.689Z" fill="#263238" stroke="#263238" stroke-linecap="round" stroke-linejoin="round"/>
<path d="M125.203 205.689H94.5947V208.182H125.203V205.689Z" fill="#C81912" stroke="#263238" stroke-linecap="round" stroke-linejoin="round"/>
<path d="M97.06 205.689H40.4432L37.1726 168.033C37.1274 167.62 37.1709 167.201 37.3002 166.805C37.4294 166.41 37.6415 166.046 37.9222 165.739C38.2029 165.432 38.5458 165.188 38.9282 165.024C39.3105 164.859 39.7235 164.778 40.1396 164.786H90.2796C91.1632 164.802 92.0103 165.141 92.6606 165.739C93.3108 166.338 93.719 167.154 93.8078 168.033L97.06 205.689Z" fill="white" stroke="#263238" stroke-linecap="round" stroke-linejoin="round"/>
<path d="M95.9745 205.689H39.3577L36.0871 168.033C36.042 167.62 36.0855 167.201 36.2147 166.805C36.344 166.41 36.556 166.046 36.8367 165.739C37.1174 165.432 37.4604 165.188 37.8427 165.024C38.225 164.859 38.638 164.778 39.0541 164.786H89.1941C90.0777 164.802 90.9249 165.141 91.5751 165.739C92.2254 166.338 92.6335 167.154 92.7223 168.033L95.9745 205.689Z" fill="#C81912" stroke="#263238" stroke-linecap="round" stroke-linejoin="round"/>
<path d="M93.4539 176.649L39.3579 205.689H95.9747L93.4539 176.649Z" fill="#263238" stroke="#263238" stroke-linecap="round" stroke-linejoin="round"/>
<path d="M66.4157 186.623C67.7142 185.267 67.568 183.02 66.0891 181.604C64.6102 180.187 62.3587 180.139 61.0601 181.495C59.7616 182.85 59.9079 185.098 61.3868 186.514C62.8657 187.93 65.1172 187.979 66.4157 186.623Z" fill="#263238" stroke="#263238" stroke-linecap="round" stroke-linejoin="round"/>
<path d="M216.315 191.406C215.183 189.87 211.54 189 210.39 189.566V192.492C215.786 191.742 216.642 197.069 214.884 199.796C214.402 200.521 213.723 201.092 212.926 201.443C212.13 201.794 211.25 201.911 210.39 201.779V204.3C211.31 204.622 212.998 204.76 215.091 203.062C218.362 200.399 218.873 194.865 216.315 191.406Z" fill="white" stroke="#263238" stroke-linecap="round" stroke-linejoin="round"/>
<path d="M210.795 185.306H194.856V207.957H210.795V185.306Z" fill="white" stroke="#263238" stroke-linecap="round" stroke-linejoin="round"/>
<path d="M198.076 172.04C197.942 171.343 198.006 170.623 198.26 169.961" stroke="white" stroke-linecap="round" stroke-linejoin="round"/>
<path d="M198.26 182.85C198.26 182.85 201.48 180.78 200.33 177.79C199.732 176.24 198.95 174.809 198.462 173.475" stroke="white" stroke-linecap="round" stroke-linejoin="round"/>
<path d="M201.94 182.85C201.94 182.85 205.16 180.78 204.01 177.79C203.66 176.87 203.251 176.024 202.874 175.2" stroke="white" stroke-linecap="round" stroke-linejoin="round"/>
<path d="M207 176.18C205.951 173.88 204.87 171.856 205.62 169.984" stroke="white" stroke-linecap="round" stroke-linejoin="round"/>
<path d="M205.62 182.85C205.62 182.85 208.339 181.102 207.888 178.499" stroke="white" stroke-linecap="round" stroke-linejoin="round"/>
<path d="M6.8999 207.948H224.02" stroke="#263238" stroke-linecap="round" stroke-linejoin="round"/>
</svg>
