<svg width="21" height="19" viewBox="0 0 21 19" fill="none" xmlns="http://www.w3.org/2000/svg">
<path d="M10.7252 15.3462L5.87782 18.0417C5.66367 18.1675 5.4398 18.2214 5.20619 18.2035C4.97258 18.1855 4.76817 18.1136 4.59297 17.9878C4.41776 17.862 4.28149 17.7046 4.18415 17.5156C4.08681 17.3265 4.06734 17.1156 4.12575 16.8827L5.4106 11.7882L1.11803 8.36492C0.923352 8.20319 0.801875 8.01882 0.753596 7.81181C0.705317 7.60479 0.719723 7.40281 0.796814 7.20586C0.874683 7.00819 0.991488 6.84646 1.14723 6.72067C1.30297 6.59488 1.51711 6.51402 1.78965 6.47808L7.45468 6.01985L9.64477 1.22187C9.7421 1.00623 9.89317 0.844501 10.098 0.736681C10.3028 0.628861 10.5118 0.574951 10.7252 0.574951C10.9394 0.574951 11.1484 0.628861 11.3525 0.736681C11.5565 0.844501 11.7075 1.00623 11.8057 1.22187L13.9957 6.01985L19.6608 6.47808C19.9333 6.51402 20.1475 6.59488 20.3032 6.72067C20.4589 6.84646 20.5757 7.00819 20.6536 7.20586C20.7315 7.40353 20.7463 7.60587 20.698 7.81289C20.6497 8.0199 20.5278 8.20391 20.3324 8.36492L16.0398 11.7882L17.3247 16.8827C17.3831 17.1163 17.3636 17.3276 17.2663 17.5167C17.1689 17.7057 17.0327 17.8628 16.8575 17.9878C16.6822 18.1136 16.4778 18.1855 16.2442 18.2035C16.0106 18.2214 15.7867 18.1675 15.5726 18.0417L10.7252 15.3462Z" fill="#FFC700"/>
</svg>
